#!OML:ASF E:\Steps\Project 1\Capture day 1\Session 2\Subject.ASF
:FULLY-SPECIFIED
:DEGREES
84
root -1.35077 16.2512 21.0432 -154.817 -0.624821 179.777
lowerback -29.619 -2.00769 -6.95069
upperback -1.46226 -1.01949 0.0949911
thorax 14.0531 -1.18598 3.40982
lowerneck -1.74736 -5.14232 -0.836676
upperneck 16.4394 -6.69907 4.67609
head 5.42327 -2.63506 1.27993
rclavicle 9.34288e-015 5.1684e-015
rhumerus -39.1451 -20.7016 -76.4569
rradius 29.8263
rwrist 0.896598
rhand -8.71895 -55.202
rfingers 7.12502
rthumb -162.783 -264.459
lclavicle 9.34288e-015 5.1684e-015
lhumerus -29.6624 6.4915 81.3022
lradius 20.1567
lwrist -5.58532
lhand -21.7018 -12.7716
lfingers 7.12502
lthumb 4.69675 17.1563
rfemur -23.5006 8.1504 19.8782
rtibia 9.27701
rfoot -19.3384 -4.26962
rtoes -22.6477
lfemur -21.6764 -6.74846 -21.2464
ltibia 6.39213
lfoot -7.2164 0.257827
ltoes -24.4255
85
root -1.35054 16.2529 21.0441 -154.921 -0.608185 179.726
lowerback -29.4748 -2.0252 -6.97328
upperback -1.47259 -1.0413 0.0780667
thorax 13.9778 -1.19306 3.3984
lowerneck -1.68577 -5.12652 -0.863365
upperneck 16.4344 -6.67332 4.68854
head 5.41172 -2.62312 1.29124
rclavicle 3.27995e-015 7.95139e-015
rhumerus -39.1744 -20.66 -76.4525
rradius 29.7716
rwrist 0.936487
rhand -8.72568 -54.9664
rfingers 7.12502
rthumb -162.79 -264.224
lclavicle 3.27995e-015 7.95139e-015
lhumerus -29.7144 6.53705 81.2555
lradius 19.9605
lwrist -5.35512
lhand -21.9269 -13.4138
lfingers 7.12502
lthumb 4.47935 16.5188
rfemur -23.3724 8.14418 19.828
rtibia 9.26027
rfoot -19.3356 -4.30005
rtoes -22.9187
lfemur -21.5408 -6.86789 -21.3021
ltibia 6.3719
lfoot -7.23254 0.361145
ltoes -24.3114
86
root -1.34907 16.2519 21.0472 -154.87 -0.606243 179.691
lowerback -29.4732 -2.02467 -6.97324
upperback -1.50862 -1.04398 0.0388475
thorax 13.9341 -1.19406 3.35409
lowerneck -1.68801 -5.14244 -0.787328
upperneck 16.4985 -6.68635 4.61347
head 5.42745 -2.62579 1.25464
rclavicle -2.48481e-015 -2.38542e-014
rhumerus -39.2397 -20.6578 -76.5016
rradius 29.8151
rwrist 0.93085
rhand -8.6202 -55.1319
rfingers 7.12502
rthumb -162.688 -264.381
lclavicle -2.48481e-015 -2.38542e-014
lhumerus -29.7249 6.83246 80.9995
lradius 19.8173
lwrist -6.00587
lhand -21.7239 -13.5085
lfingers 7.12502
lthumb 4.67538 16.4199
rfemur -23.4797 8.12612 19.7786
rtibia 9.33608
rfoot -19.3517 -4.28597
rtoes -22.8638
lfemur -21.6371 -6.82165 -21.3427
ltibia 6.45828
lfoot -7.27443 0.299344
ltoes -23.5225
87
root -1.34922 16.2524 21.0452 -154.929 -0.621477 179.662
lowerback -29.4552 -2.03629 -6.9818
upperback -1.47242 -1.04861 0.0315838
thorax 13.9684 -1.19557 3.34979
lowerneck -1.80965 -5.11809 -0.773193
upperneck 16.5778 -6.6524 4.56066
head 5.46959 -2.60852 1.23437
rclavicle -7.45443e-015 -1.63003e-014
rhumerus -39.2197 -20.5889 -76.5473
rradius 29.8302
rwrist 0.855294
rhand -8.56098 -55.3914
rfingers 7.12502
rthumb -162.631 -264.635
lclavicle -7.45443e-015 -1.63003e-014
lhumerus -29.7051 7.16396 80.8003
lradius 19.7065
lwrist -6.69917
lhand -21.5944 -13.3587
lfingers 7.12502
lthumb 4.80037 16.5669
rfemur -23.4289 8.06203 19.7749
rtibia 9.35122
rfoot -19.3626 -4.25896
rtoes -22.9725
lfemur -21.5522 -6.80561 -21.3879
ltibia 6.43868
lfoot -7.23541 0.264311
ltoes -23.0731
88
root -1.34908 16.2507 21.045 -154.856 -0.649473 179.65
lowerback -29.5644 -2.04909 -6.97281
upperback -1.45482 -1.06025 0.0327925
thorax 14.0394 -1.20312 3.33904
lowerneck -1.91629 -5.08815 -0.797589
upperneck 16.6014 -6.61837 4.56915
head 5.4952 -2.59268 1.23999
rclavicle 5.96354e-015 -1.63003e-014
rhumerus -39.1769 -20.5038 -76.6011
rradius 29.8414
rwrist 0.764923
rhand -8.55719 -55.3693
rfingers 7.12502
rthumb -162.627 -264.613
lclavicle 5.96354e-015 -1.63003e-014
lhumerus -29.6805 7.00613 80.9014
lradius 19.5774
lwrist -6.14287
lhand -21.894 -13.5261
lfingers 7.12502
lthumb 4.51112 16.4059
rfemur -23.5198 8.06729 19.7756
rtibia 9.35387
rfoot -19.349 -4.33891
rtoes -23.4287
lfemur -21.6407 -6.77457 -21.3992
ltibia 6.43773
lfoot -7.17188 0.198613
ltoes -22.8935
89
root -1.34889 16.2543 21.0454 -154.9 -0.660547 179.694
lowerback -29.5506 -2.01542 -6.86455
upperback -1.42256 -1.04122 -0.00436699
thorax 14.0675 -1.18603 3.24832
lowerneck -1.90573 -5.09521 -0.760099
upperneck 16.5672 -6.63365 4.5866
head 5.48256 -2.59841 1.23882
rclavicle 2.98177e-015 -3.29983e-014
rhumerus -39.1595 -20.5888 -76.6364
rradius 29.8044
rwrist 0.873634
rhand -8.42931 -55.6977
rfingers 7.12502
rthumb -162.504 -264.93
lclavicle 2.98177e-015 -3.29983e-014
lhumerus -29.6954 6.74138 80.9467
lradius 19.5166
lwrist -5.62193
lhand -22.0531 -13.3868
lfingers 7.12502
lthumb 4.3575 16.5484
rfemur -23.4592 8.10528 19.8368
rtibia 9.37531
rfoot -19.3843 -4.38273
rtoes -23.4634
lfemur -21.5688 -6.79614 -21.3553
ltibia 6.37484
lfoot -7.14863 0.222521
ltoes -23.464
90
root -1.34907 16.2505 21.0515 -154.629 -0.613135 179.645
lowerback -29.7798 -2.03658 -6.89474
upperback -1.47938 -1.0607 -0.0213523
thorax 14.1058 -1.20403 3.23168
lowerneck -1.99096 -5.08639 -0.711402
upperneck 16.6294 -6.61894 4.51257
head 5.51197 -2.5908 1.20626
rclavicle -6.36111e-015 -1.27222e-014
rhumerus -39.1409 -20.5757 -76.6353
rradius 29.7528
rwrist 0.982344
rhand -8.41987 -56.0039
rfingers 7.12502
rthumb -162.495 -265.236
lclavicle -6.36111e-015 -1.27222e-014
lhumerus -29.7178 6.93317 80.8049
lradius 19.5133
lwrist -6.12536
lhand -21.719 -12.4762
lfingers 7.12502
lthumb 4.68015 17.4521
rfemur -23.851 7.93421 19.7727
rtibia 9.53945
rfoot -19.4076 -4.23491
rtoes -23.4619
lfemur -21.8973 -6.82271 -21.3957
ltibia 6.39668
lfoot -7.12249 0.25641
ltoes -24.4193
91
root -1.34795 16.2514 21.0513 -154.734 -0.575405 179.564
lowerback -29.6731 -2.07457 -7.01373
upperback -1.45465 -1.07127 -0.0141071
thorax 14.0881 -1.21338 3.30248
lowerneck -2.15356 -5.06531 -0.699903
upperneck 16.7684 -6.58517 4.42843
head 5.57896 -2.57297 1.17548
rclavicle 6.75868e-015 1.82882e-014
rhumerus -39.1212 -20.5216 -76.6023
rradius 29.6767
rwrist 0.974983
rhand -8.6653 -55.7419
rfingers 7.12502
rthumb -162.731 -264.995
lclavicle 6.75868e-015 1.82882e-014
lhumerus -29.6943 7.26933 80.6721
lradius 19.3808
lwrist -6.71656
lhand -21.5493 -11.9732
lfingers 7.12502
lthumb 4.84395 17.9514
rfemur -23.7103 7.86166 19.7112
rtibia 9.50011
rfoot -19.3916 -4.18432
rtoes -23.5613
lfemur -21.7417 -6.8626 -21.498
ltibia 6.34477
lfoot -7.12287 0.298739
ltoes -24.5171
92
root -1.34594 16.2488 21.0512 -154.822 -0.630206 179.68
lowerback -29.6117 -2.06124 -6.90457
upperback -1.42041 -1.0898 0.0309179
thorax 14.104 -1.21305 3.28763
lowerneck -2.21119 -5.06984 -0.730582
upperneck 16.8088 -6.59578 4.46017
head 5.60383 -2.57583 1.18814
rclavicle 3.08116e-015 -8.34896e-015
rhumerus -39.0812 -20.5448 -76.5786
rradius 29.6157
rwrist 0.979952
rhand -8.77536 -55.6175
rfingers 7.12502
rthumb -162.837 -264.88
lclavicle 3.08116e-015 -8.34896e-015
lhumerus -29.6454 7.48663 80.5887
lradius 19.2128
lwrist -7.01762
lhand -21.2591 -11.6551
lfingers 7.12502
lthumb 5.12418 18.2629
rfemur -23.5577 7.93819 19.87
rtibia 9.43131
rfoot -19.3867 -4.20955
rtoes -23.3433
lfemur -21.6515 -6.79375 -21.364
ltibia 6.3523
lfoot -7.14623 0.257522
ltoes -24.1261
93
root -1.34533 16.2482 21.053 -154.827 -0.68411 179.765
lowerback -29.618 -2.05098 -6.8197
upperback -1.41177 -1.10544 0.0613816
thorax 14.1195 -1.21504 3.269
lowerneck -2.18224 -5.07873 -0.724236
upperneck 16.7783 -6.61281 4.50217
head 5.59105 -2.58189 1.20009
rclavicle 1.59028e-015 -8.34896e-015
rhumerus -39.0865 -20.5383 -76.5723
rradius 29.6475
rwrist 0.996215
rhand -8.6001 -55.8947
rfingers 7.12502
rthumb -162.669 -265.142
lclavicle 1.59028e-015 -8.34896e-015
lhumerus -29.68 7.63532 80.4781
lradius 19.1558
lwrist -7.4223
lhand -20.9064 -11.5137
lfingers 7.12502
lthumb 5.4647 18.3958
rfemur -23.5243 7.94247 19.9814
rtibia 9.38051
rfoot -19.3595 -4.16722
rtoes -22.97
lfemur -21.6851 -6.6885 -21.2828
ltibia 6.39164
lfoot -7.15811 0.178255
ltoes -23.9141
